<svg width="197" height="49" viewBox="0 0 197 49" fill="white" xmlns="http://www.w3.org/2000/svg">
<path d="M5.94013 24.7545C6.37655 26.4759 7.22514 27.8821 8.51015 28.9732C9.74666 30.04 11.2014 30.6219 12.8016 30.7189C13.1168 30.7431 13.4077 30.7431 13.6987 30.7431C15.4686 30.7431 16.8021 30.4037 17.7719 29.749C18.8387 30.0885 19.857 30.8158 20.8511 31.9796C21.433 32.6342 21.8936 33.2646 22.2331 33.8708C20.8511 34.8406 19.5418 35.5437 18.3053 35.9559C16.8021 36.465 14.9594 36.7075 12.8258 36.7075C11.0802 36.7075 9.43147 36.3196 7.83128 35.568C6.30381 34.8406 4.94607 33.8223 3.7338 32.513C2.54577 31.1795 1.64869 29.6521 0.994063 27.9549C0.315191 26.185 0 24.3181 0 22.3784C0 20.4388 0.339436 18.5719 0.994063 16.802C1.64869 15.1048 2.57002 13.5773 3.7338 12.2438C4.92182 10.9346 6.30381 9.91628 7.83128 9.18891C9.40723 8.4373 11.0802 8.04938 12.8258 8.04938C14.3775 8.04938 15.8565 8.36457 17.2627 8.9707C18.6205 9.5526 19.857 10.4012 20.9481 11.4922C22.0149 12.559 22.9119 13.8198 23.6151 15.2745C24.3182 16.7292 24.8031 18.3052 25.0698 20.0024C25.1668 20.8025 25.2395 21.6026 25.2395 22.3784C25.2395 23.2028 25.191 23.9786 25.0698 24.7787H5.94013V24.7545ZM19.2266 19.9781C18.7902 18.2082 17.9659 16.802 16.7778 15.7109C15.5413 14.5714 14.1351 14.0138 12.5591 14.0138C10.9832 14.0138 9.57695 14.5714 8.36468 15.7109C7.20089 16.802 6.40079 18.2325 5.94013 19.9781H19.2266Z" fill="white"/>
<path d="M51.0365 10.4498C52.8064 11.759 54.1642 13.4562 55.1825 15.5413C56.225 17.6506 56.7342 19.9297 56.7342 22.3785V36.7076H51.0365V22.3785C51.0365 21.239 50.8426 20.1722 50.4789 19.1296C50.1152 18.1356 49.606 17.2385 48.9514 16.4626C48.2968 15.711 47.5452 15.1049 46.6723 14.6927C45.7995 14.2563 44.8782 14.0381 43.9084 14.0381C42.9385 14.0381 42.0172 14.2563 41.1201 14.6927C40.2715 15.1291 39.5199 15.711 38.8411 16.4626C38.1864 17.2385 37.6773 18.1356 37.3136 19.1296C36.9499 20.1722 36.756 21.239 36.756 22.3785V36.7076H31.0825V9.79512C31.9311 9.092 33.0706 8.58285 34.5496 8.29191C35.4225 8.09794 36.0528 8.02521 36.465 8.02521C36.562 8.02521 36.659 8.02521 36.756 8.04945V10.4982C38.8896 8.87379 41.2899 8.04945 43.9084 8.04945C46.5026 8.02521 48.8787 8.82531 51.0365 10.4498Z" fill="white"/>
<path d="M68.4445 24.7545C68.8809 26.4759 69.7295 27.8821 71.0145 28.9732C72.2511 30.04 73.7058 30.6219 75.306 30.7189C75.6212 30.7431 75.9121 30.7431 76.2031 30.7431C77.973 30.7431 79.3065 30.4037 80.2763 29.749C81.3431 30.0885 82.3614 30.8158 83.3555 31.9796C83.9374 32.6342 84.398 33.2646 84.7375 33.8708C83.3555 34.8406 82.0462 35.5437 80.8097 35.9559C79.3065 36.465 77.4638 36.7075 75.3302 36.7075C73.5846 36.7075 71.9359 36.3196 70.3357 35.568C68.8082 34.8406 67.4505 33.8223 66.2382 32.513C65.0502 31.1795 64.1531 29.6521 63.4985 27.9549C62.8196 26.185 62.5044 24.3181 62.5044 22.3784C62.5044 20.4388 62.8438 18.5719 63.4985 16.802C64.1531 15.1048 65.0744 13.5773 66.2382 12.2438C67.4262 10.9346 68.8082 9.91628 70.3357 9.18891C71.9116 8.4373 73.5846 8.04938 75.3302 8.04938C76.8819 8.04938 78.3609 8.36457 79.7671 8.9707C81.1249 9.5526 82.3614 10.4012 83.4525 11.4922C84.5193 12.559 85.4163 13.8198 86.1195 15.2745C86.8226 16.7292 87.3075 18.3052 87.5742 20.0024C87.6712 20.8025 87.7439 21.6026 87.7439 22.3784C87.7439 23.2028 87.6954 23.9786 87.5742 24.7787H68.4445V24.7545ZM81.731 19.9781C81.2946 18.2082 80.4703 16.802 79.2822 15.7109C78.0457 14.5714 76.6395 14.0138 75.0635 14.0138C73.4876 14.0138 72.0813 14.5714 70.8691 15.7109C69.7053 16.802 68.9052 18.2325 68.4445 19.9781H81.731Z" fill="white"/>
<path d="M112.305 8.04945C112.402 8.02521 112.523 8.02521 112.668 8.02521C113.08 8.02521 113.687 8.09794 114.487 8.26766C115.941 8.58285 117.105 9.092 117.978 9.77087V35.0346C117.954 35.6165 117.905 36.1742 117.857 36.7076C117.687 38.3078 117.275 39.811 116.62 41.2415C116.014 42.6234 115.19 43.86 114.196 44.951C113.177 46.0663 112.038 46.9634 110.777 47.6423C109.444 48.3211 108.037 48.7575 106.583 48.9273C106.025 48.9757 105.467 49 104.885 49C103.164 49 101.515 48.6848 99.9637 48.0787C97.7816 47.2058 96.0601 45.8481 94.7751 44.0297C95.1388 43.6175 95.7692 43.1568 96.642 42.6477C97.8785 41.8961 99.0423 41.5082 100.109 41.4354C100.788 42.1628 101.685 42.6477 102.825 42.8901C103.382 43.0114 104.013 43.0841 104.667 43.0841C105.079 43.0841 105.54 43.0599 105.977 43.0114C106.922 42.9144 107.795 42.6234 108.619 42.09C109.419 41.6051 110.098 40.9748 110.68 40.1747C111.262 39.3746 111.698 38.4775 111.965 37.4834C112.208 36.6591 112.329 35.8105 112.329 34.9376C112.329 34.7437 112.329 34.5255 112.305 34.3315C110.171 35.9317 107.795 36.7561 105.176 36.7561C103.431 36.7561 101.782 36.3924 100.182 35.6408C98.6302 34.9134 97.2724 33.8951 96.0844 32.5616C94.8964 31.2523 93.9993 29.7249 93.3447 28.0034C92.6658 26.2335 92.3506 24.3909 92.3506 22.4512C92.3506 20.5116 92.69 18.6447 93.3447 16.8748C93.9993 15.1534 94.9206 13.6259 96.0844 12.3166C97.2724 10.9831 98.6302 9.96484 100.182 9.23748C101.758 8.48587 103.431 8.12219 105.176 8.12219C107.771 8.12219 110.171 8.92229 112.329 10.5467V8.04945H112.305ZM105.152 30.7432C106.122 30.7432 107.043 30.525 107.916 30.0886C108.789 29.6521 109.541 29.0702 110.195 28.2944C110.874 27.5428 111.383 26.6457 111.723 25.6516C112.111 24.6091 112.305 23.5423 112.305 22.4027C112.305 21.2632 112.111 20.1722 111.723 19.1539C111.359 18.1356 110.85 17.2385 110.195 16.4869C109.541 15.711 108.789 15.1049 107.916 14.6927C107.043 14.2563 106.122 14.0623 105.152 14.0623C104.182 14.0623 103.261 14.2805 102.364 14.6927C101.515 15.1291 100.764 15.711 100.085 16.4869C99.4303 17.2385 98.9211 18.1356 98.5574 19.1539C98.1937 20.1722 97.9998 21.2632 97.9998 22.4027C97.9998 23.5423 98.1937 24.6091 98.5574 25.6516C98.9211 26.6457 99.4303 27.5428 100.085 28.2944C100.764 29.0702 101.515 29.6764 102.364 30.0886C103.261 30.525 104.182 30.7432 105.152 30.7432Z" fill="white"/>
<path d="M124.355 1.74567C125.203 1.0668 126.343 0.581892 127.822 0.266701C128.695 0.0727378 129.325 0 129.737 0C129.834 0 129.931 1.47946e-06 130.028 0.0242469V5.72192C129.931 5.69768 129.834 5.69768 129.737 5.69768C129.325 5.69768 128.67 5.79466 127.822 5.96438C126.367 6.25532 125.203 6.74023 124.355 7.44335V1.74567ZM130.028 36.6833H124.355V9.77091C125.203 9.06779 126.343 8.55864 127.822 8.2677C128.695 8.07373 129.325 8.00099 129.737 8.00099C129.834 8.00099 129.931 8.001 130.028 8.02524V36.6833Z" fill="white"/>
<path d="M157.814 36.4166C157.086 36.5378 156.238 36.6106 155.316 36.6833C154.807 36.7318 154.322 36.7318 153.886 36.7318C152.698 36.7318 151.776 36.6106 151.098 36.3924L145.303 27.0821L139.508 36.3924C138.757 36.6348 137.811 36.756 136.696 36.756C135.58 36.756 134.271 36.6348 132.792 36.3924L141.933 21.6754L133.641 8.36464C134.368 8.24341 135.217 8.17068 136.138 8.09794C136.647 8.04945 137.132 8.04945 137.569 8.04945C138.757 8.04945 139.678 8.17068 140.357 8.38889L145.279 16.2929L150.2 8.38889C150.952 8.14643 151.898 8.02521 153.013 8.02521C154.128 8.02521 155.413 8.14643 156.892 8.38889H156.916L148.673 21.6996L157.814 36.4166Z" fill="white"/>
<path d="M171.052 25.1911C173.791 25.1911 173.791 20.9481 171.052 20.9481C168.336 20.9481 168.336 25.1911 171.052 25.1911Z" fill="white"/>
<path d="M177.113 25.1911C179.853 25.1911 179.853 20.9482 177.113 20.9482C174.373 20.9482 174.373 25.1911 177.113 25.1911Z" fill="white"/>
<path d="M157.28 4.09747H193.624V40.7808H158.129" stroke="url(#paint0_linear)" stroke-width="5" stroke-miterlimit="10"/>
<path d="M157.28 4.09747H193.624V40.7808H158.129" stroke="#00F30C" stroke-opacity="0.31" stroke-width="5" stroke-miterlimit="10"/>
<defs>
<linearGradient id="paint0_linear" x1="157.281" y1="22.4364" x2="196.652" y2="22.4364" gradientUnits="userSpaceOnUse">
<stop offset="1.02703e-07" stop-color="#5CC2A4"/>
<stop offset="0.0818673" stop-color="#5ABE9E"/>
<stop offset="0.2045" stop-color="#53B48F"/>
<stop offset="0.3528" stop-color="#48A77B"/>
<stop offset="0.5196" stop-color="#379763"/>
<stop offset="0.6323" stop-color="#2A8D58"/>
<stop offset="1" stop-color="#336848"/>
</linearGradient>
</defs>
</svg>